<svg width="1278" height="300" viewBox="0 0 1278 300" fill="none" xmlns="http://www.w3.org/2000/svg">
<g clip-path="url(#clip0_1304_2267)">
<path d="M134.59 203.824H128.062L164.286 96.5601H170.815L134.59 203.824ZM232.014 132.4V100.4H250.062V190H234.318L232.526 180.912C228.174 186.544 221.774 190.768 212.302 190.768C194.638 190.768 181.711 177.84 181.711 156.976C181.711 136.624 194.639 123.44 212.174 123.44C221.262 123.44 227.79 127.024 232.014 132.4ZM216.271 176.048C226.127 176.048 232.271 168.368 232.271 157.232C232.271 145.968 226.127 138.16 216.271 138.16C206.415 138.16 200.142 145.84 200.142 157.104C200.142 168.368 206.415 176.048 216.271 176.048ZM291.318 190.768C269.43 190.768 256.245 177.584 256.245 157.232C256.245 136.752 269.686 123.44 290.038 123.44C309.75 123.44 323.062 135.728 323.318 155.056C323.318 156.976 323.19 159.152 322.806 161.2H275.062V162.096C275.446 171.44 281.461 177.072 290.549 177.072C297.845 177.072 302.966 173.872 304.502 167.728H322.294C320.246 180.528 308.854 190.768 291.318 190.768ZM275.446 149.424H305.142C303.862 141.36 298.358 136.88 290.166 136.88C282.358 136.88 276.47 141.616 275.446 149.424ZM343.495 190L319.816 124.208H339.144L355.016 171.568L370.632 124.208H389.576L365.896 190H343.495ZM400.07 203.824H393.543L429.767 96.5601H436.294L400.07 203.824ZM487.255 123.44C501.847 123.44 513.879 131.248 513.879 153.52V190H495.831V155.056C495.831 144.304 491.478 138.288 482.518 138.288C473.302 138.288 467.798 144.944 467.798 156.208V190H449.751V100.4H467.798V132.272C472.022 127.152 477.911 123.44 487.255 123.44ZM565.315 157.104V124.208H583.363V190H567.363L565.699 182.064C561.475 187.184 555.715 190.768 546.371 190.768C532.803 190.768 520.259 183.984 520.259 160.688V124.208H538.307V158.256C538.307 170.032 542.147 175.792 551.107 175.792C560.067 175.792 565.315 169.264 565.315 157.104ZM629.958 123.44C647.622 123.44 660.422 136.112 660.422 156.976C660.422 177.328 647.623 190.768 629.831 190.768C620.359 190.768 613.831 186.672 609.607 181.04L607.815 190H592.07V100.4H610.118V132.528C614.47 127.28 620.87 123.44 629.958 123.44ZM625.863 176.048C635.719 176.048 642.118 168.368 642.118 157.104C642.118 145.84 635.719 138.16 625.863 138.16C616.007 138.16 609.863 145.84 609.863 156.976C609.863 168.24 616.007 176.048 625.863 176.048ZM674.925 203.824H668.397L704.621 96.5601H711.149L674.925 203.824Z" fill="#F4F4F4"/>
<path d="M755.583 190.768C734.719 190.768 722.047 177.84 722.047 157.104C722.047 136.752 735.359 123.44 756.223 123.44C774.143 123.44 785.279 133.168 787.839 148.784H769.023C767.487 142.256 763.007 138.16 755.967 138.16C746.495 138.16 740.479 145.968 740.479 157.104C740.479 168.368 746.495 176.048 755.967 176.048C763.007 176.048 767.743 171.824 769.023 165.168H787.967C785.407 180.912 773.503 190.768 755.583 190.768ZM825.77 190.768C804.778 190.768 791.082 177.328 791.082 157.104C791.082 136.88 804.778 123.44 825.77 123.44C846.762 123.44 860.458 136.88 860.458 157.104C860.458 177.456 846.762 190.768 825.77 190.768ZM825.77 176.048C835.882 176.048 842.154 168.24 842.154 157.104C842.154 145.968 835.882 138.16 825.77 138.16C815.658 138.16 809.514 145.968 809.514 157.104C809.514 168.24 815.658 176.048 825.77 176.048ZM904.312 123.44C918.52 123.44 930.68 130.992 930.68 153.52V190H912.632V155.312C912.632 144.176 908.408 138.288 899.32 138.288C889.976 138.288 884.6 144.944 884.6 156.336V190H866.552V124.208H882.296L883.96 132.4C888.184 127.28 894.2 123.44 904.312 123.44ZM937.188 171.184V105.776H955.236V124.208H970.212V139.44H955.236V168.24C955.236 172.848 957.028 174.768 961.636 174.768H970.98V190H956.004C943.46 190 937.188 183.728 937.188 171.184ZM1007.01 190.768C985.121 190.768 971.937 177.584 971.937 157.232C971.937 136.752 985.377 123.44 1005.73 123.44C1025.44 123.44 1038.75 135.728 1039.01 155.056C1039.01 156.976 1038.88 159.152 1038.5 161.2H990.753V162.096C991.137 171.44 997.153 177.072 1006.24 177.072C1013.54 177.072 1018.66 173.872 1020.19 167.728H1037.98C1035.94 180.528 1024.54 190.768 1007.01 190.768ZM991.137 149.424H1020.83C1019.55 141.36 1014.05 136.88 1005.86 136.88C998.049 136.88 992.161 141.616 991.137 149.424ZM1082.79 123.44C1097 123.44 1109.16 130.992 1109.16 153.52V190H1091.11V155.312C1091.11 144.176 1086.89 138.288 1077.8 138.288C1068.46 138.288 1063.08 144.944 1063.08 156.336V190H1045.03V124.208H1060.78L1062.44 132.4C1066.66 127.28 1072.68 123.44 1082.79 123.44ZM1115.67 171.184V105.776H1133.72V124.208H1148.69V139.44H1133.72V168.24C1133.72 172.848 1135.51 174.768 1140.12 174.768H1149.46V190H1134.48C1121.94 190 1115.67 183.728 1115.67 171.184Z" fill="#F5C242"/>
</g>
<defs>
<clipPath id="clip0_1304_2267">
<rect width="1022" height="108" fill="white" transform="translate(128 96)"/>
</clipPath>
</defs>
</svg>
